<svg width="38" height="39" viewBox="0 0 38 39" fill="none" xmlns="http://www.w3.org/2000/svg">
<path d="M13.0483 1.06292C17.287 -0.392235 21.8962 -0.352212 26.1089 1.17633C28.4226 2.04243 30.5423 3.357 32.3465 5.04455C31.7335 5.70049 31.0867 6.31352 30.4615 6.95107C29.2722 8.13831 28.0839 9.32145 26.8967 10.5005C25.7131 9.36867 24.2814 8.52899 22.7158 8.0484C20.7124 7.44346 18.581 7.40204 16.5555 7.92868C14.5301 8.45532 12.6888 9.52966 11.2338 11.0339C9.96368 12.3259 9.00182 13.8882 8.41997 15.604L2.06592 10.6844C4.34028 6.17425 8.2782 2.72431 13.0483 1.06292Z" fill="#E33629"/>
<path d="M0.38007 15.558C0.721592 13.8654 1.28859 12.2263 2.0659 10.6844L8.41995 15.6163C7.58873 18.0641 7.58873 20.7179 8.41995 23.1657C6.30296 24.8005 4.18494 26.4434 2.0659 28.0945C0.119994 24.2211 -0.473474 19.8079 0.38007 15.558Z" fill="#F8BD00"/>
<path d="M19.3871 15.7572H37.6309C38.2549 19.1808 38.0861 22.7018 37.1374 26.05C36.2645 29.1288 34.569 31.9116 32.2331 34.099C30.1826 32.499 28.1228 30.9113 26.0722 29.3113C27.0888 28.6256 27.9566 27.7416 28.6233 26.7124C29.2901 25.6833 29.7423 24.5301 29.9527 23.322H19.3871C19.384 20.8024 19.3871 18.2798 19.3871 15.7572Z" fill="#587DBD"/>
<path d="M2.06287 28.0945C4.18191 26.4598 6.29992 24.8169 8.41692 23.1658C9.23595 25.5695 10.7936 27.6528 12.8675 29.1183C14.161 30.0325 15.6308 30.6672 17.1832 30.9819C18.7129 31.2663 20.2819 31.2663 21.8116 30.9819C23.3368 30.7237 24.7912 30.1495 26.0814 29.2961C28.132 30.8961 30.1917 32.4838 32.2423 34.0838C29.9983 36.1244 27.2627 37.5471 24.3036 38.2126C21.0374 38.9804 17.6336 38.9436 14.3848 38.1053C11.8153 37.4192 9.41516 36.2098 7.33492 34.5528C5.13311 32.8047 3.33477 30.6017 2.06287 28.0945Z" fill="#319F43"/>
</svg>
